<?xml version="1.0" standalone="no"?><!DOCTYPE svg PUBLIC "-//W3C//DTD SVG 1.1//EN" "http://www.w3.org/Graphics/SVG/1.1/DTD/svg11.dtd"><svg t="1565891965104" class="icon" viewBox="0 0 1024 1024" version="1.1" xmlns="http://www.w3.org/2000/svg" p-id="2896" xmlns:xlink="http://www.w3.org/1999/xlink" width="200" height="200"><defs><style type="text/css"></style></defs><path d="M888.389416 662.853753c-21.076014 46.192042-56.495712 60.318784-94.954629 60.318784L299.66601 723.172537c-38.458917 0-63.218834-31.450293-72.798003-60.318784-9.582239-28.871561-65.13037-430.42203-69.634963-454.629361s-9.04398-46.803979-19.074428-63.99757c-10.030447-17.194614-16.745383-18.015306-57.945737-24.548092-23.344684-3.701299-19.22997-54.863539 0-54.863539 0 0 26.115797 1.169639 42.203194 3.52222s56.026014 12.846586 67.52286 51.341319 30.502711 137.157823 30.502711 137.157823L875.729072 256.836553c38.458917 0 82.294284 17.674545 82.294284 56.30333C958.024379 313.139883 909.467477 616.661711 888.389416 662.853753zM848.298326 311.699068 299.66601 311.699068c-19.22997 0-37.718043-5.143137-54.863539 27.431769s16.551978 191.148481 27.431769 246.883877c10.879792 55.735395 18.218944 82.294284 44.630477 82.294284L793.434787 668.308998c19.22997 0 43.750433-3.244904 60.138682-75.398224 18.758226-82.585927 43.900859-217.438241 47.095621-246.849084C903.863852 316.65187 880.974539 311.699068 848.298326 311.699068zM368.244922 764.930593c53.025681 0 96.010681 42.985 96.010681 96.010681s-42.985 96.010681-96.010681 96.010681S272.234241 913.966954 272.234241 860.941274 315.220265 764.930593 368.244922 764.930593zM368.244922 902.088416c22.724561 0 41.147142-18.422581 41.147142-41.147142s-18.422581-41.147142-41.147142-41.147142-41.147142 18.422581-41.147142 41.147142C327.09778 883.665835 345.521385 902.088416 368.244922 902.088416zM733.042325 764.930593c53.025681 0 96.010681 42.985 96.010681 96.010681s-42.985 96.010681-96.010681 96.010681S637.031645 913.966954 637.031645 860.941274 680.016645 764.930593 733.042325 764.930593zM733.042325 902.088416c22.724561 0 41.147142-18.422581 41.147142-41.147142s-18.422581-41.147142-41.147142-41.147142-41.147142 18.422581-41.147142 41.147142C691.895183 883.665835 710.317765 902.088416 733.042325 902.088416z" p-id="2897"></path></svg>