<?xml version="1.0" standalone="no"?><!DOCTYPE svg PUBLIC "-//W3C//DTD SVG 1.1//EN" "http://www.w3.org/Graphics/SVG/1.1/DTD/svg11.dtd"><svg t="1565889185989" class="icon" viewBox="0 0 1024 1024" version="1.1" xmlns="http://www.w3.org/2000/svg" p-id="1093" xmlns:xlink="http://www.w3.org/1999/xlink" width="200" height="200"><defs><style type="text/css"></style></defs><path d="M512 704c-176 0-320-144-320-320S336 64 512 64s320 144 320 320-144 320-320 320z m0-576c-140.8 0-256 115.2-256 256s115.2 256 256 256 256-115.2 256-256S652.8 128 512 128zM883.2 960c-8 0-17.6-3.2-24-9.6C768 852.8 644.8 800 512 800s-256 52.8-348.8 150.4c-12.8 12.8-32 12.8-44.8 1.6-12.8-12.8-12.8-32-1.6-44.8C220.8 796.8 361.6 736 512 736s291.2 60.8 395.2 169.6c12.8 12.8 11.2 33.6-1.6 44.8-6.4 6.4-14.4 9.6-22.4 9.6z" p-id="1094"></path></svg>